<?xml version="1.0" standalone="no"?>
<!DOCTYPE svg PUBLIC "-//W3C//DTD SVG 1.1//EN" "http://www.w3.org/Graphics/SVG/1.1/DTD/svg11.dtd">
<svg version="1.1" width="1200" height="694" onload="init(evt)" viewBox="0 0 1200 694" xmlns="http://www.w3.org/2000/svg" xmlns:xlink="http://www.w3.org/1999/xlink">
<!-- Flame graph stack visualization. See https://github.com/brendangregg/FlameGraph for latest version, and http://www.brendangregg.com/flamegraphs.html for examples. -->
<!-- NOTES:  -->
<defs>
	<linearGradient id="background" y1="0" y2="1" x1="0" x2="0" >
		<stop stop-color="#eeeeee" offset="5%" />
		<stop stop-color="#eeeeb0" offset="95%" />
	</linearGradient>
</defs>
<style type="text/css">
	text { font-family:Verdana; font-size:12px; fill:rgb(0,0,0); }
	#search, #ignorecase { opacity:0.1; cursor:pointer; }
	#search:hover, #search.show, #ignorecase:hover, #ignorecase.show { opacity:1; }
	#subtitle { text-anchor:middle; font-color:rgb(160,160,160); }
	#title { text-anchor:middle; font-size:17px}
	#unzoom { cursor:pointer; }
	#frames > *:hover { stroke:black; stroke-width:0.5; cursor:pointer; }
	.hide { display:none; }
	.parent { opacity:0.5; }
</style>
<script type="text/ecmascript">
<![CDATA[
	"use strict";
	var details, searchbtn, unzoombtn, matchedtxt, svg, searching, currentSearchTerm, ignorecase, ignorecaseBtn;
	function init(evt) {
		details = document.getElementById("details").firstChild;
		searchbtn = document.getElementById("search");
		ignorecaseBtn = document.getElementById("ignorecase");
		unzoombtn = document.getElementById("unzoom");
		matchedtxt = document.getElementById("matched");
		svg = document.getElementsByTagName("svg")[0];
		searching = 0;
		currentSearchTerm = null;

		// use GET parameters to restore a flamegraphs state.
		var params = get_params();
		if (params.x && params.y)
			zoom(find_group(document.querySelector('[x="' + params.x + '"][y="' + params.y + '"]')));
                if (params.s) search(params.s);
	}

	// event listeners
	window.addEventListener("click", function(e) {
		var target = find_group(e.target);
		if (target) {
			if (target.nodeName == "a") {
				if (e.ctrlKey === false) return;
				e.preventDefault();
			}
			if (target.classList.contains("parent")) unzoom(true);
			zoom(target);
			if (!document.querySelector('.parent')) {
				// we have basically done a clearzoom so clear the url
				var params = get_params();
				if (params.x) delete params.x;
				if (params.y) delete params.y;
				history.replaceState(null, null, parse_params(params));
				unzoombtn.classList.add("hide");
				return;
			}

			// set parameters for zoom state
			var el = target.querySelector("rect");
			if (el && el.attributes && el.attributes.y && el.attributes._orig_x) {
				var params = get_params()
				params.x = el.attributes._orig_x.value;
				params.y = el.attributes.y.value;
				history.replaceState(null, null, parse_params(params));
			}
		}
		else if (e.target.id == "unzoom") clearzoom();
		else if (e.target.id == "search") search_prompt();
		else if (e.target.id == "ignorecase") toggle_ignorecase();
	}, false)

	// mouse-over for info
	// show
	window.addEventListener("mouseover", function(e) {
		var target = find_group(e.target);
		if (target) details.nodeValue = "Function: " + g_to_text(target);
	}, false)

	// clear
	window.addEventListener("mouseout", function(e) {
		var target = find_group(e.target);
		if (target) details.nodeValue = ' ';
	}, false)

	// ctrl-F for search
	// ctrl-I to toggle case-sensitive search
	window.addEventListener("keydown",function (e) {
		if (e.keyCode === 114 || (e.ctrlKey && e.keyCode === 70)) {
			e.preventDefault();
			search_prompt();
		}
		else if (e.ctrlKey && e.keyCode === 73) {
			e.preventDefault();
			toggle_ignorecase();
		}
	}, false)

	// functions
	function get_params() {
		var params = {};
		var paramsarr = window.location.search.substr(1).split('&');
		for (var i = 0; i < paramsarr.length; ++i) {
			var tmp = paramsarr[i].split("=");
			if (!tmp[0] || !tmp[1]) continue;
			params[tmp[0]]  = decodeURIComponent(tmp[1]);
		}
		return params;
	}
	function parse_params(params) {
		var uri = "?";
		for (var key in params) {
			uri += key + '=' + encodeURIComponent(params[key]) + '&';
		}
		if (uri.slice(-1) == "&")
			uri = uri.substring(0, uri.length - 1);
		if (uri == '?')
			uri = window.location.href.split('?')[0];
		return uri;
	}
	function find_child(node, selector) {
		var children = node.querySelectorAll(selector);
		if (children.length) return children[0];
	}
	function find_group(node) {
		var parent = node.parentElement;
		if (!parent) return;
		if (parent.id == "frames") return node;
		return find_group(parent);
	}
	function orig_save(e, attr, val) {
		if (e.attributes["_orig_" + attr] != undefined) return;
		if (e.attributes[attr] == undefined) return;
		if (val == undefined) val = e.attributes[attr].value;
		e.setAttribute("_orig_" + attr, val);
	}
	function orig_load(e, attr) {
		if (e.attributes["_orig_"+attr] == undefined) return;
		e.attributes[attr].value = e.attributes["_orig_" + attr].value;
		e.removeAttribute("_orig_"+attr);
	}
	function g_to_text(e) {
		var text = find_child(e, "title").firstChild.nodeValue;
		return (text)
	}
	function g_to_func(e) {
		var func = g_to_text(e);
		// if there's any manipulation we want to do to the function
		// name before it's searched, do it here before returning.
		return (func);
	}
	function update_text(e) {
		var r = find_child(e, "rect");
		var t = find_child(e, "text");
		var w = parseFloat(r.attributes.width.value) -3;
		var txt = find_child(e, "title").textContent.replace(/\([^(]*\)$/,"");
		t.attributes.x.value = parseFloat(r.attributes.x.value) + 3;

		// Smaller than this size won't fit anything
		if (w < 2 * 12 * 0.59) {
			t.textContent = "";
			return;
		}

		t.textContent = txt;
		var sl = t.getSubStringLength(0, txt.length);
		// check if only whitespace or if we can fit the entire string into width w
		if (/^ *$/.test(txt) || sl < w)
			return;

		// this isn't perfect, but gives a good starting point
		// and avoids calling getSubStringLength too often
		var start = Math.floor((w/sl) * txt.length);
		for (var x = start; x > 0; x = x-2) {
			if (t.getSubStringLength(0, x + 2) <= w) {
				t.textContent = txt.substring(0, x) + "..";
				return;
			}
		}
		t.textContent = "";
	}

	// zoom
	function zoom_reset(e) {
		if (e.attributes != undefined) {
			orig_load(e, "x");
			orig_load(e, "width");
		}
		if (e.childNodes == undefined) return;
		for (var i = 0, c = e.childNodes; i < c.length; i++) {
			zoom_reset(c[i]);
		}
	}
	function zoom_child(e, x, ratio) {
		if (e.attributes != undefined) {
			if (e.attributes.x != undefined) {
				orig_save(e, "x");
				e.attributes.x.value = (parseFloat(e.attributes.x.value) - x - 10) * ratio + 10;
				if (e.tagName == "text")
					e.attributes.x.value = find_child(e.parentNode, "rect[x]").attributes.x.value + 3;
			}
			if (e.attributes.width != undefined) {
				orig_save(e, "width");
				e.attributes.width.value = parseFloat(e.attributes.width.value) * ratio;
			}
		}

		if (e.childNodes == undefined) return;
		for (var i = 0, c = e.childNodes; i < c.length; i++) {
			zoom_child(c[i], x - 10, ratio);
		}
	}
	function zoom_parent(e) {
		if (e.attributes) {
			if (e.attributes.x != undefined) {
				orig_save(e, "x");
				e.attributes.x.value = 10;
			}
			if (e.attributes.width != undefined) {
				orig_save(e, "width");
				e.attributes.width.value = parseInt(svg.width.baseVal.value) - (10 * 2);
			}
		}
		if (e.childNodes == undefined) return;
		for (var i = 0, c = e.childNodes; i < c.length; i++) {
			zoom_parent(c[i]);
		}
	}
	function zoom(node) {
		var attr = find_child(node, "rect").attributes;
		var width = parseFloat(attr.width.value);
		var xmin = parseFloat(attr.x.value);
		var xmax = parseFloat(xmin + width);
		var ymin = parseFloat(attr.y.value);
		var ratio = (svg.width.baseVal.value - 2 * 10) / width;

		// XXX: Workaround for JavaScript float issues (fix me)
		var fudge = 0.0001;

		unzoombtn.classList.remove("hide");

		var el = document.getElementById("frames").children;
		for (var i = 0; i < el.length; i++) {
			var e = el[i];
			var a = find_child(e, "rect").attributes;
			var ex = parseFloat(a.x.value);
			var ew = parseFloat(a.width.value);
			var upstack;
			// Is it an ancestor
			if (0 == 0) {
				upstack = parseFloat(a.y.value) > ymin;
			} else {
				upstack = parseFloat(a.y.value) < ymin;
			}
			if (upstack) {
				// Direct ancestor
				if (ex <= xmin && (ex+ew+fudge) >= xmax) {
					e.classList.add("parent");
					zoom_parent(e);
					update_text(e);
				}
				// not in current path
				else
					e.classList.add("hide");
			}
			// Children maybe
			else {
				// no common path
				if (ex < xmin || ex + fudge >= xmax) {
					e.classList.add("hide");
				}
				else {
					zoom_child(e, xmin, ratio);
					update_text(e);
				}
			}
		}
		search();
	}
	function unzoom(dont_update_text) {
		unzoombtn.classList.add("hide");
		var el = document.getElementById("frames").children;
		for(var i = 0; i < el.length; i++) {
			el[i].classList.remove("parent");
			el[i].classList.remove("hide");
			zoom_reset(el[i]);
			if(!dont_update_text) update_text(el[i]);
		}
		search();
	}
	function clearzoom() {
		unzoom();

		// remove zoom state
		var params = get_params();
		if (params.x) delete params.x;
		if (params.y) delete params.y;
		history.replaceState(null, null, parse_params(params));
	}

	// search
	function toggle_ignorecase() {
		ignorecase = !ignorecase;
		if (ignorecase) {
			ignorecaseBtn.classList.add("show");
		} else {
			ignorecaseBtn.classList.remove("show");
		}
		reset_search();
		search();
	}
	function reset_search() {
		var el = document.querySelectorAll("#frames rect");
		for (var i = 0; i < el.length; i++) {
			orig_load(el[i], "fill")
		}
		var params = get_params();
		delete params.s;
		history.replaceState(null, null, parse_params(params));
	}
	function search_prompt() {
		if (!searching) {
			var term = prompt("Enter a search term (regexp " +
			    "allowed, eg: ^ext4_)"
			    + (ignorecase ? ", ignoring case" : "")
			    + "\nPress Ctrl-i to toggle case sensitivity", "");
			if (term != null) search(term);
		} else {
			reset_search();
			searching = 0;
			currentSearchTerm = null;
			searchbtn.classList.remove("show");
			searchbtn.firstChild.nodeValue = "Search"
			matchedtxt.classList.add("hide");
			matchedtxt.firstChild.nodeValue = ""
		}
	}
	function search(term) {
		if (term) currentSearchTerm = term;

		var re = new RegExp(currentSearchTerm, ignorecase ? 'i' : '');
		var el = document.getElementById("frames").children;
		var matches = new Object();
		var maxwidth = 0;
		for (var i = 0; i < el.length; i++) {
			var e = el[i];
			var func = g_to_func(e);
			var rect = find_child(e, "rect");
			if (func == null || rect == null)
				continue;

			// Save max width. Only works as we have a root frame
			var w = parseFloat(rect.attributes.width.value);
			if (w > maxwidth)
				maxwidth = w;

			if (func.match(re)) {
				// highlight
				var x = parseFloat(rect.attributes.x.value);
				orig_save(rect, "fill");
				rect.attributes.fill.value = "rgb(230,0,230)";

				// remember matches
				if (matches[x] == undefined) {
					matches[x] = w;
				} else {
					if (w > matches[x]) {
						// overwrite with parent
						matches[x] = w;
					}
				}
				searching = 1;
			}
		}
		if (!searching)
			return;
		var params = get_params();
		params.s = currentSearchTerm;
		history.replaceState(null, null, parse_params(params));

		searchbtn.classList.add("show");
		searchbtn.firstChild.nodeValue = "Reset Search";

		// calculate percent matched, excluding vertical overlap
		var count = 0;
		var lastx = -1;
		var lastw = 0;
		var keys = Array();
		for (k in matches) {
			if (matches.hasOwnProperty(k))
				keys.push(k);
		}
		// sort the matched frames by their x location
		// ascending, then width descending
		keys.sort(function(a, b){
			return a - b;
		});
		// Step through frames saving only the biggest bottom-up frames
		// thanks to the sort order. This relies on the tree property
		// where children are always smaller than their parents.
		var fudge = 0.0001;	// JavaScript floating point
		for (var k in keys) {
			var x = parseFloat(keys[k]);
			var w = matches[keys[k]];
			if (x >= lastx + lastw - fudge) {
				count += w;
				lastx = x;
				lastw = w;
			}
		}
		// display matched percent
		matchedtxt.classList.remove("hide");
		var pct = 100 * count / maxwidth;
		if (pct != 100) pct = pct.toFixed(1)
		matchedtxt.firstChild.nodeValue = "Matched: " + pct + "%";
	}
]]>
</script>
<rect x="0.0" y="0" width="1200.0" height="694.0" fill="url(#background)"  />
<text id="title" x="600.00" y="24" >Flame Graph</text>
<text id="details" x="10.00" y="677" > </text>
<text id="unzoom" x="10.00" y="24" class="hide">Reset Zoom</text>
<text id="search" x="1090.00" y="24" >Search</text>
<text id="ignorecase" x="1174.00" y="24" >ic</text>
<text id="matched" x="1090.00" y="677" > </text>
<g id="frames">
<g >
<title>perf_ioctl (6,674 samples, 0.42%)</title><rect x="1175.2" y="421" width="5.0" height="15.0" fill="rgb(246,191,45)" rx="2" ry="2" />
<text  x="1178.20" y="431.5" ></text>
</g>
<g >
<title>perf_event_for_each_child (3,053 samples, 0.19%)</title><rect x="1177.9" y="389" width="2.3" height="15.0" fill="rgb(224,88,21)" rx="2" ry="2" />
<text  x="1180.89" y="399.5" ></text>
</g>
<g >
<title>perf-exec (1,064,292 samples, 67.03%)</title><rect x="359.4" y="629" width="791.0" height="15.0" fill="rgb(231,123,29)" rx="2" ry="2" />
<text  x="362.44" y="639.5" >perf-exec</text>
</g>
<g >
<title>perf (53,326 samples, 3.36%)</title><rect x="1150.4" y="629" width="39.6" height="15.0" fill="rgb(242,171,40)" rx="2" ry="2" />
<text  x="1153.37" y="639.5" >perf</text>
</g>
<g >
<title>main (53,326 samples, 3.36%)</title><rect x="1150.4" y="597" width="39.6" height="15.0" fill="rgb(243,179,42)" rx="2" ry="2" />
<text  x="1153.37" y="607.5" >main</text>
</g>
<g >
<title>[code] (470,208 samples, 29.61%)</title><rect x="10.0" y="597" width="349.4" height="15.0" fill="rgb(219,68,16)" rx="2" ry="2" />
<text  x="13.00" y="607.5" >[code]</text>
</g>
<g >
<title>ctx_resched (3,037 samples, 0.19%)</title><rect x="1177.9" y="261" width="2.2" height="15.0" fill="rgb(244,180,43)" rx="2" ry="2" />
<text  x="1180.89" y="271.5" ></text>
</g>
<g >
<title>[code] (470,208 samples, 29.61%)</title><rect x="10.0" y="565" width="349.4" height="15.0" fill="rgb(219,68,16)" rx="2" ry="2" />
<text  x="13.00" y="575.5" >[code]</text>
</g>
<g >
<title>perf_evsel__run_ioctl (29,043 samples, 1.83%)</title><rect x="1168.4" y="501" width="21.6" height="15.0" fill="rgb(245,184,44)" rx="2" ry="2" />
<text  x="1171.42" y="511.5" >p..</text>
</g>
<g >
<title>exit_to_user_mode_prepare (6,618 samples, 0.42%)</title><rect x="1182.9" y="421" width="4.9" height="15.0" fill="rgb(228,108,25)" rx="2" ry="2" />
<text  x="1185.88" y="431.5" ></text>
</g>
<g >
<title>uv_run (470,208 samples, 29.61%)</title><rect x="10.0" y="373" width="349.4" height="15.0" fill="rgb(228,110,26)" rx="2" ry="2" />
<text  x="13.00" y="383.5" >uv_run</text>
</g>
<g >
<title>entry_SYSCALL_64_after_hwframe (1,064,292 samples, 67.03%)</title><rect x="359.4" y="597" width="791.0" height="15.0" fill="rgb(218,63,15)" rx="2" ry="2" />
<text  x="362.44" y="607.5" >entry_SYSCALL_64_after_hwframe</text>
</g>
<g >
<title>__fdget (3,602 samples, 0.23%)</title><rect x="1172.5" y="421" width="2.7" height="15.0" fill="rgb(214,41,10)" rx="2" ry="2" />
<text  x="1175.52" y="431.5" ></text>
</g>
<g >
<title>entry_SYSCALL_64_after_hwframe (26,076 samples, 1.64%)</title><rect x="1168.4" y="469" width="19.4" height="15.0" fill="rgb(218,63,15)" rx="2" ry="2" />
<text  x="1171.42" y="479.5" ></text>
</g>
<g >
<title>visit_groups_merge.constprop.0.isra.0 (2,893 samples, 0.18%)</title><rect x="1178.0" y="229" width="2.1" height="15.0" fill="rgb(220,70,16)" rx="2" ry="2" />
<text  x="1180.96" y="239.5" ></text>
</g>
<g >
<title>entry_SYSCALL_64_after_hwframe (4,726 samples, 0.30%)</title><rect x="1164.9" y="485" width="3.5" height="15.0" fill="rgb(218,63,15)" rx="2" ry="2" />
<text  x="1167.90" y="495.5" ></text>
</g>
<g >
<title>[code] (470,208 samples, 29.61%)</title><rect x="10.0" y="261" width="349.4" height="15.0" fill="rgb(219,68,16)" rx="2" ry="2" />
<text  x="13.00" y="271.5" >[code]</text>
</g>
<g >
<title>do_execveat_common.isra.0 (1,064,292 samples, 67.03%)</title><rect x="359.4" y="549" width="791.0" height="15.0" fill="rgb(231,123,29)" rx="2" ry="2" />
<text  x="362.44" y="559.5" >do_execveat_common.isra.0</text>
</g>
<g >
<title>[code] (470,208 samples, 29.61%)</title><rect x="10.0" y="197" width="349.4" height="15.0" fill="rgb(219,68,16)" rx="2" ry="2" />
<text  x="13.00" y="207.5" >[code]</text>
</g>
<g >
<title>__x86_indirect_thunk_rax (2,381 samples, 0.15%)</title><rect x="1178.0" y="213" width="1.8" height="15.0" fill="rgb(251,213,51)" rx="2" ry="2" />
<text  x="1181.04" y="223.5" ></text>
</g>
<g >
<title>[code] (470,208 samples, 29.61%)</title><rect x="10.0" y="341" width="349.4" height="15.0" fill="rgb(219,68,16)" rx="2" ry="2" />
<text  x="13.00" y="351.5" >[code]</text>
</g>
<g >
<title>[code] (470,208 samples, 29.61%)</title><rect x="10.0" y="165" width="349.4" height="15.0" fill="rgb(219,68,16)" rx="2" ry="2" />
<text  x="13.00" y="175.5" >[code]</text>
</g>
<g >
<title>smp_call_function_single (3,053 samples, 0.19%)</title><rect x="1177.9" y="341" width="2.3" height="15.0" fill="rgb(223,83,19)" rx="2" ry="2" />
<text  x="1180.89" y="351.5" ></text>
</g>
<g >
<title>[code] (470,208 samples, 29.61%)</title><rect x="10.0" y="501" width="349.4" height="15.0" fill="rgb(219,68,16)" rx="2" ry="2" />
<text  x="13.00" y="511.5" >[code]</text>
</g>
<g >
<title>_perf_ioctl (3,053 samples, 0.19%)</title><rect x="1177.9" y="405" width="2.3" height="15.0" fill="rgb(232,128,30)" rx="2" ry="2" />
<text  x="1180.89" y="415.5" ></text>
</g>
<g >
<title>[[anon:v8]] (470,208 samples, 29.61%)</title><rect x="10.0" y="69" width="349.4" height="15.0" fill="rgb(222,81,19)" rx="2" ry="2" />
<text  x="13.00" y="79.5" >[[anon:v8]]</text>
</g>
<g >
<title>do_syscall_64 (22,626 samples, 1.42%)</title><rect x="1171.0" y="453" width="16.8" height="15.0" fill="rgb(209,20,4)" rx="2" ry="2" />
<text  x="1173.98" y="463.5" ></text>
</g>
<g >
<title>begin_new_exec (1,064,292 samples, 67.03%)</title><rect x="359.4" y="453" width="791.0" height="15.0" fill="rgb(245,184,44)" rx="2" ry="2" />
<text  x="362.44" y="463.5" >begin_new_exec</text>
</g>
<g >
<title>__libc_start_main (470,208 samples, 29.61%)</title><rect x="10.0" y="613" width="349.4" height="15.0" fill="rgb(236,142,34)" rx="2" ry="2" />
<text  x="13.00" y="623.5" >__libc_start_main</text>
</g>
<g >
<title>[code] (470,208 samples, 29.61%)</title><rect x="10.0" y="309" width="349.4" height="15.0" fill="rgb(219,68,16)" rx="2" ry="2" />
<text  x="13.00" y="319.5" >[code]</text>
</g>
<g >
<title>[code] (470,208 samples, 29.61%)</title><rect x="10.0" y="485" width="349.4" height="15.0" fill="rgb(219,68,16)" rx="2" ry="2" />
<text  x="13.00" y="495.5" >[code]</text>
</g>
<g >
<title>exit_mmap (1,064,292 samples, 67.03%)</title><rect x="359.4" y="389" width="791.0" height="15.0" fill="rgb(236,143,34)" rx="2" ry="2" />
<text  x="362.44" y="399.5" >exit_mmap</text>
</g>
<g >
<title>[code] (470,208 samples, 29.61%)</title><rect x="10.0" y="405" width="349.4" height="15.0" fill="rgb(219,68,16)" rx="2" ry="2" />
<text  x="13.00" y="415.5" >[code]</text>
</g>
<g >
<title>[code] (470,208 samples, 29.61%)</title><rect x="10.0" y="517" width="349.4" height="15.0" fill="rgb(219,68,16)" rx="2" ry="2" />
<text  x="13.00" y="527.5" >[code]</text>
</g>
<g >
<title>unmap_page_range (1,064,292 samples, 67.03%)</title><rect x="359.4" y="341" width="791.0" height="15.0" fill="rgb(206,5,1)" rx="2" ry="2" />
<text  x="362.44" y="351.5" >unmap_page_range</text>
</g>
<g >
<title>__kmalloc_node (4,726 samples, 0.30%)</title><rect x="1164.9" y="421" width="3.5" height="15.0" fill="rgb(222,80,19)" rx="2" ry="2" />
<text  x="1167.90" y="431.5" ></text>
</g>
<g >
<title>v8::Function::Call (470,208 samples, 29.61%)</title><rect x="10.0" y="229" width="349.4" height="15.0" fill="rgb(222,81,19)" rx="2" ry="2" />
<text  x="13.00" y="239.5" >v8::Function::Call</text>
</g>
<g >
<title>__perf_event_enable (3,053 samples, 0.19%)</title><rect x="1177.9" y="277" width="2.3" height="15.0" fill="rgb(237,149,35)" rx="2" ry="2" />
<text  x="1180.89" y="287.5" ></text>
</g>
<g >
<title>remote_function (3,053 samples, 0.19%)</title><rect x="1177.9" y="309" width="2.3" height="15.0" fill="rgb(217,59,14)" rx="2" ry="2" />
<text  x="1180.89" y="319.5" ></text>
</g>
<g >
<title>[code] (470,208 samples, 29.61%)</title><rect x="10.0" y="437" width="349.4" height="15.0" fill="rgb(219,68,16)" rx="2" ry="2" />
<text  x="13.00" y="447.5" >[code]</text>
</g>
<g >
<title>alloc_cpumask_var_node (4,726 samples, 0.30%)</title><rect x="1164.9" y="437" width="3.5" height="15.0" fill="rgb(208,17,4)" rx="2" ry="2" />
<text  x="1167.90" y="447.5" ></text>
</g>
<g >
<title>[code] (470,208 samples, 29.61%)</title><rect x="10.0" y="533" width="349.4" height="15.0" fill="rgb(219,68,16)" rx="2" ry="2" />
<text  x="13.00" y="543.5" >[code]</text>
</g>
<g >
<title>[code] (470,208 samples, 29.61%)</title><rect x="10.0" y="293" width="349.4" height="15.0" fill="rgb(219,68,16)" rx="2" ry="2" />
<text  x="13.00" y="303.5" >[code]</text>
</g>
<g >
<title>exec_mmap (1,064,292 samples, 67.03%)</title><rect x="359.4" y="437" width="791.0" height="15.0" fill="rgb(221,77,18)" rx="2" ry="2" />
<text  x="362.44" y="447.5" >exec_mmap</text>
</g>
<g >
<title>[[anon:v8]] (470,208 samples, 29.61%)</title><rect x="10.0" y="133" width="349.4" height="15.0" fill="rgb(222,81,19)" rx="2" ry="2" />
<text  x="13.00" y="143.5" >[[anon:v8]]</text>
</g>
<g >
<title>__mmput (1,064,292 samples, 67.03%)</title><rect x="359.4" y="405" width="791.0" height="15.0" fill="rgb(249,203,48)" rx="2" ry="2" />
<text  x="362.44" y="415.5" >__mmput</text>
</g>
<g >
<title>__fget_light (3,602 samples, 0.23%)</title><rect x="1172.5" y="405" width="2.7" height="15.0" fill="rgb(233,132,31)" rx="2" ry="2" />
<text  x="1175.52" y="415.5" ></text>
</g>
<g >
<title>exec_binprm (1,064,292 samples, 67.03%)</title><rect x="359.4" y="501" width="791.0" height="15.0" fill="rgb(244,180,43)" rx="2" ry="2" />
<text  x="362.44" y="511.5" >exec_binprm</text>
</g>
<g >
<title>mmput (1,064,292 samples, 67.03%)</title><rect x="359.4" y="421" width="791.0" height="15.0" fill="rgb(226,99,23)" rx="2" ry="2" />
<text  x="362.44" y="431.5" >mmput</text>
</g>
<g >
<title>[code] (470,208 samples, 29.61%)</title><rect x="10.0" y="245" width="349.4" height="15.0" fill="rgb(219,68,16)" rx="2" ry="2" />
<text  x="13.00" y="255.5" >[code]</text>
</g>
<g >
<title>zap_pte_range (1,064,292 samples, 67.03%)</title><rect x="359.4" y="309" width="791.0" height="15.0" fill="rgb(231,120,28)" rx="2" ry="2" />
<text  x="362.44" y="319.5" >zap_pte_range</text>
</g>
<g >
<title>perf_event_groups_next (144 samples, 0.01%)</title><rect x="1180.0" y="213" width="0.1" height="15.0" fill="rgb(245,186,44)" rx="2" ry="2" />
<text  x="1182.97" y="223.5" ></text>
</g>
<g >
<title>ctx_sched_in (2,941 samples, 0.19%)</title><rect x="1177.9" y="245" width="2.2" height="15.0" fill="rgb(230,117,28)" rx="2" ry="2" />
<text  x="1180.93" y="255.5" ></text>
</g>
<g >
<title>load_elf_binary (1,064,292 samples, 67.03%)</title><rect x="359.4" y="469" width="791.0" height="15.0" fill="rgb(223,83,20)" rx="2" ry="2" />
<text  x="362.44" y="479.5" >load_elf_binary</text>
</g>
<g >
<title>[code] (470,208 samples, 29.61%)</title><rect x="10.0" y="277" width="349.4" height="15.0" fill="rgb(219,68,16)" rx="2" ry="2" />
<text  x="13.00" y="287.5" >[code]</text>
</g>
<g >
<title>[code] (470,208 samples, 29.61%)</title><rect x="10.0" y="549" width="349.4" height="15.0" fill="rgb(219,68,16)" rx="2" ry="2" />
<text  x="13.00" y="559.5" >[code]</text>
</g>
<g >
<title>__x64_sys_ioctl (12,354 samples, 0.78%)</title><rect x="1171.0" y="437" width="9.2" height="15.0" fill="rgb(249,204,49)" rx="2" ry="2" />
<text  x="1173.98" y="447.5" ></text>
</g>
<g >
<title>syscall_enter_from_user_mode (3,654 samples, 0.23%)</title><rect x="1180.2" y="437" width="2.7" height="15.0" fill="rgb(254,229,54)" rx="2" ry="2" />
<text  x="1183.16" y="447.5" ></text>
</g>
<g >
<title>__x64_sys_ioctl (3,450 samples, 0.22%)</title><rect x="1168.4" y="453" width="2.6" height="15.0" fill="rgb(249,204,49)" rx="2" ry="2" />
<text  x="1171.42" y="463.5" ></text>
</g>
<g >
<title>[code] (470,208 samples, 29.61%)</title><rect x="10.0" y="453" width="349.4" height="15.0" fill="rgb(219,68,16)" rx="2" ry="2" />
<text  x="13.00" y="463.5" >[code]</text>
</g>
<g >
<title>all (1,587,826 samples, 100%)</title><rect x="10.0" y="645" width="1180.0" height="15.0" fill="rgb(213,39,9)" rx="2" ry="2" />
<text  x="13.00" y="655.5" ></text>
</g>
<g >
<title>__x64_sys_sched_setaffinity (4,726 samples, 0.30%)</title><rect x="1164.9" y="453" width="3.5" height="15.0" fill="rgb(227,104,25)" rx="2" ry="2" />
<text  x="1167.90" y="463.5" ></text>
</g>
<g >
<title>__x64_sys_execve (1,064,292 samples, 67.03%)</title><rect x="359.4" y="565" width="791.0" height="15.0" fill="rgb(247,193,46)" rx="2" ry="2" />
<text  x="362.44" y="575.5" >__x64_sys_execve</text>
</g>
<g >
<title>event_function (3,053 samples, 0.19%)</title><rect x="1177.9" y="293" width="2.3" height="15.0" fill="rgb(252,219,52)" rx="2" ry="2" />
<text  x="1180.89" y="303.5" ></text>
</g>
<g >
<title>run_builtin (53,326 samples, 3.36%)</title><rect x="1150.4" y="581" width="39.6" height="15.0" fill="rgb(243,179,42)" rx="2" ry="2" />
<text  x="1153.37" y="591.5" >run..</text>
</g>
<g >
<title>merge_sched_in (224 samples, 0.01%)</title><rect x="1179.8" y="213" width="0.2" height="15.0" fill="rgb(233,132,31)" rx="2" ry="2" />
<text  x="1182.80" y="223.5" ></text>
</g>
<g >
<title>perf_evsel__enable_cpu (29,043 samples, 1.83%)</title><rect x="1168.4" y="517" width="21.6" height="15.0" fill="rgb(238,152,36)" rx="2" ry="2" />
<text  x="1171.42" y="527.5" >p..</text>
</g>
<g >
<title>code (470,208 samples, 29.61%)</title><rect x="10.0" y="629" width="349.4" height="15.0" fill="rgb(208,16,3)" rx="2" ry="2" />
<text  x="13.00" y="639.5" >code</text>
</g>
<g >
<title>[code] (470,208 samples, 29.61%)</title><rect x="10.0" y="469" width="349.4" height="15.0" fill="rgb(219,68,16)" rx="2" ry="2" />
<text  x="13.00" y="479.5" >[code]</text>
</g>
<g >
<title>perf_evsel__ioctl (2,967 samples, 0.19%)</title><rect x="1187.8" y="485" width="2.2" height="15.0" fill="rgb(211,30,7)" rx="2" ry="2" />
<text  x="1190.80" y="495.5" ></text>
</g>
<g >
<title>perf_cpu_map__idx (6,641 samples, 0.42%)</title><rect x="1157.8" y="501" width="4.9" height="15.0" fill="rgb(214,45,10)" rx="2" ry="2" />
<text  x="1160.75" y="511.5" ></text>
</g>
<g >
<title>[code] (470,208 samples, 29.61%)</title><rect x="10.0" y="325" width="349.4" height="15.0" fill="rgb(219,68,16)" rx="2" ry="2" />
<text  x="13.00" y="335.5" >[code]</text>
</g>
<g >
<title>sched_setaffinity@@GLIBC_2.3.4 (7,706 samples, 0.49%)</title><rect x="1162.7" y="501" width="5.7" height="15.0" fill="rgb(206,6,1)" rx="2" ry="2" />
<text  x="1165.69" y="511.5" ></text>
</g>
<g >
<title>[code] (470,208 samples, 29.61%)</title><rect x="10.0" y="37" width="349.4" height="15.0" fill="rgb(219,68,16)" rx="2" ry="2" />
<text  x="13.00" y="47.5" >[code]</text>
</g>
<g >
<title>do_syscall_64 (4,726 samples, 0.30%)</title><rect x="1164.9" y="469" width="3.5" height="15.0" fill="rgb(209,20,4)" rx="2" ry="2" />
<text  x="1167.90" y="479.5" ></text>
</g>
<g >
<title>[[anon:v8]] (470,208 samples, 29.61%)</title><rect x="10.0" y="53" width="349.4" height="15.0" fill="rgb(222,81,19)" rx="2" ry="2" />
<text  x="13.00" y="63.5" >[[anon:v8]]</text>
</g>
<g >
<title>unmap_vmas (1,064,292 samples, 67.03%)</title><rect x="359.4" y="373" width="791.0" height="15.0" fill="rgb(243,176,42)" rx="2" ry="2" />
<text  x="362.44" y="383.5" >unmap_vmas</text>
</g>
<g >
<title>[[anon:v8]] (470,208 samples, 29.61%)</title><rect x="10.0" y="149" width="349.4" height="15.0" fill="rgb(222,81,19)" rx="2" ry="2" />
<text  x="13.00" y="159.5" >[[anon:v8]]</text>
</g>
<g >
<title>__cmd_record.constprop.0 (53,326 samples, 3.36%)</title><rect x="1150.4" y="549" width="39.6" height="15.0" fill="rgb(240,164,39)" rx="2" ry="2" />
<text  x="1153.37" y="559.5" >__c..</text>
</g>
<g >
<title>unmap_single_vma (1,064,292 samples, 67.03%)</title><rect x="359.4" y="357" width="791.0" height="15.0" fill="rgb(225,93,22)" rx="2" ry="2" />
<text  x="362.44" y="367.5" >unmap_single_vma</text>
</g>
<g >
<title>generic_exec_single (3,053 samples, 0.19%)</title><rect x="1177.9" y="325" width="2.3" height="15.0" fill="rgb(234,134,32)" rx="2" ry="2" />
<text  x="1180.89" y="335.5" ></text>
</g>
<g >
<title>[code] (470,208 samples, 29.61%)</title><rect x="10.0" y="581" width="349.4" height="15.0" fill="rgb(219,68,16)" rx="2" ry="2" />
<text  x="13.00" y="591.5" >[code]</text>
</g>
<g >
<title>bprm_execve.part.0 (1,064,292 samples, 67.03%)</title><rect x="359.4" y="517" width="791.0" height="15.0" fill="rgb(228,106,25)" rx="2" ry="2" />
<text  x="362.44" y="527.5" >bprm_execve.part.0</text>
</g>
<g >
<title>event_function_call (3,053 samples, 0.19%)</title><rect x="1177.9" y="357" width="2.3" height="15.0" fill="rgb(227,103,24)" rx="2" ry="2" />
<text  x="1180.89" y="367.5" ></text>
</g>
<g >
<title>[[anon:v8]] (470,208 samples, 29.61%)</title><rect x="10.0" y="101" width="349.4" height="15.0" fill="rgb(222,81,19)" rx="2" ry="2" />
<text  x="13.00" y="111.5" >[[anon:v8]]</text>
</g>
<g >
<title>__GI___execve (1,064,292 samples, 67.03%)</title><rect x="359.4" y="613" width="791.0" height="15.0" fill="rgb(230,117,28)" rx="2" ry="2" />
<text  x="362.44" y="623.5" >__GI___execve</text>
</g>
<g >
<title>event_sched_in (144 samples, 0.01%)</title><rect x="1179.8" y="197" width="0.1" height="15.0" fill="rgb(217,57,13)" rx="2" ry="2" />
<text  x="1182.83" y="207.5" ></text>
</g>
<g >
<title>__evlist__enable.constprop.0 (53,326 samples, 3.36%)</title><rect x="1150.4" y="533" width="39.6" height="15.0" fill="rgb(238,155,37)" rx="2" ry="2" />
<text  x="1153.37" y="543.5" >__e..</text>
</g>
<g >
<title>evlist_cpu_iterator__next (24,283 samples, 1.53%)</title><rect x="1150.4" y="517" width="18.0" height="15.0" fill="rgb(223,85,20)" rx="2" ry="2" />
<text  x="1153.37" y="527.5" ></text>
</g>
<g >
<title>bprm_execve (1,064,292 samples, 67.03%)</title><rect x="359.4" y="533" width="791.0" height="15.0" fill="rgb(218,61,14)" rx="2" ry="2" />
<text  x="362.44" y="543.5" >bprm_execve</text>
</g>
<g >
<title>[code] (470,208 samples, 29.61%)</title><rect x="10.0" y="421" width="349.4" height="15.0" fill="rgb(219,68,16)" rx="2" ry="2" />
<text  x="13.00" y="431.5" >[code]</text>
</g>
<g >
<title>__kmem_cache_alloc_node (4,726 samples, 0.30%)</title><rect x="1164.9" y="405" width="3.5" height="15.0" fill="rgb(208,16,4)" rx="2" ry="2" />
<text  x="1167.90" y="415.5" ></text>
</g>
<g >
<title>zap_pmd_range.isra.0 (1,064,292 samples, 67.03%)</title><rect x="359.4" y="325" width="791.0" height="15.0" fill="rgb(244,180,43)" rx="2" ry="2" />
<text  x="362.44" y="335.5" >zap_pmd_range.isra.0</text>
</g>
<g >
<title>[code] (470,208 samples, 29.61%)</title><rect x="10.0" y="389" width="349.4" height="15.0" fill="rgb(219,68,16)" rx="2" ry="2" />
<text  x="13.00" y="399.5" >[code]</text>
</g>
<g >
<title>[code] (470,208 samples, 29.61%)</title><rect x="10.0" y="181" width="349.4" height="15.0" fill="rgb(219,68,16)" rx="2" ry="2" />
<text  x="13.00" y="191.5" >[code]</text>
</g>
<g >
<title>search_binary_handler (1,064,292 samples, 67.03%)</title><rect x="359.4" y="485" width="791.0" height="15.0" fill="rgb(208,14,3)" rx="2" ry="2" />
<text  x="362.44" y="495.5" >search_binary_handler</text>
</g>
<g >
<title>__libc_start_call_main (53,326 samples, 3.36%)</title><rect x="1150.4" y="613" width="39.6" height="15.0" fill="rgb(210,26,6)" rx="2" ry="2" />
<text  x="1153.37" y="623.5" >__l..</text>
</g>
<g >
<title>[code] (470,208 samples, 29.61%)</title><rect x="10.0" y="357" width="349.4" height="15.0" fill="rgb(219,68,16)" rx="2" ry="2" />
<text  x="13.00" y="367.5" >[code]</text>
</g>
<g >
<title>__GI___ioctl (26,076 samples, 1.64%)</title><rect x="1168.4" y="485" width="19.4" height="15.0" fill="rgb(232,128,30)" rx="2" ry="2" />
<text  x="1171.42" y="495.5" ></text>
</g>
<g >
<title>[[anon:v8]] (470,208 samples, 29.61%)</title><rect x="10.0" y="117" width="349.4" height="15.0" fill="rgb(222,81,19)" rx="2" ry="2" />
<text  x="13.00" y="127.5" >[[anon:v8]]</text>
</g>
<g >
<title>syscall_exit_to_user_mode (6,618 samples, 0.42%)</title><rect x="1182.9" y="437" width="4.9" height="15.0" fill="rgb(251,211,50)" rx="2" ry="2" />
<text  x="1185.88" y="447.5" ></text>
</g>
<g >
<title>v8::internal::Execution::Call (470,208 samples, 29.61%)</title><rect x="10.0" y="213" width="349.4" height="15.0" fill="rgb(250,210,50)" rx="2" ry="2" />
<text  x="13.00" y="223.5" >v8::internal::Execution::Call</text>
</g>
<g >
<title>[[anon:v8]] (470,208 samples, 29.61%)</title><rect x="10.0" y="85" width="349.4" height="15.0" fill="rgb(222,81,19)" rx="2" ry="2" />
<text  x="13.00" y="95.5" >[[anon:v8]]</text>
</g>
<g >
<title>_perf_event_enable (3,053 samples, 0.19%)</title><rect x="1177.9" y="373" width="2.3" height="15.0" fill="rgb(251,212,50)" rx="2" ry="2" />
<text  x="1180.89" y="383.5" ></text>
</g>
<g >
<title>do_syscall_64 (1,064,292 samples, 67.03%)</title><rect x="359.4" y="581" width="791.0" height="15.0" fill="rgb(209,20,4)" rx="2" ry="2" />
<text  x="362.44" y="591.5" >do_syscall_64</text>
</g>
<g >
<title>cmd_record (53,326 samples, 3.36%)</title><rect x="1150.4" y="565" width="39.6" height="15.0" fill="rgb(232,125,30)" rx="2" ry="2" />
<text  x="1153.37" y="575.5" >cmd..</text>
</g>
</g>
</svg>
